<svg width="108" height="18" viewBox="0 0 108 18" fill="none" xmlns="http://www.w3.org/2000/svg">
<path d="M14.385 8.80445L14.2623 8.92675C13.4031 9.84398 12.4211 10.272 11.5006 10.272L13.219 7.27572C14.3236 5.38009 13.2803 3.54562 11.5619 3.54562C10.1504 3.54562 9.04573 4.09596 8.00242 5.93044L7.08185 7.52032L6.3454 8.80445L6.22266 8.92675C4.8725 10.4555 3.5837 11.6785 2.78588 11.6785C2.35628 11.6785 2.17217 11.3727 2.60176 10.7001L6.52952 3.85136H8.00242L8.55476 2.99527H7.02048L8.73887 -0.0010376H6.89774L5.17935 2.99527H3.52233L2.97 3.85136H4.62701L0.944748 10.2109C0.146925 11.5562 0.699264 12.8403 2.17217 12.8403C3.21548 12.8403 4.4429 12.0454 5.54758 10.9447C5.54758 13.2683 8.80024 13.7575 10.7641 11.2504H11.1937C12.2984 11.2504 14.0168 10.5778 14.9374 9.47709C14.9374 9.17134 14.6305 8.92675 14.385 8.80445ZM10.4573 8.92675H10.3959C9.78218 8.92675 9.29122 9.41594 9.29122 10.0274C9.29122 10.272 9.35258 10.4555 9.47532 10.6389V10.7001C8.61613 12.1677 6.52952 11.9231 7.57282 9.96629L8.98436 7.58147L9.84355 6.11388C11.1323 3.91251 12.9121 4.7686 11.8074 6.66423L10.4573 8.92675Z" fill="#766458"/>
<path d="M39.854 8.80421L39.7312 8.9265C38.3811 10.4552 36.7241 11.6782 35.4353 11.6782C34.3306 11.6782 33.6555 10.9444 34.4533 9.47685L34.6374 9.1711C35.8035 9.66029 38.0742 9.4157 39.4244 7.03088L39.6699 6.60284C40.6518 4.89066 39.7312 3.66767 38.197 3.66767C36.7241 3.66767 35.558 4.46261 34.7602 5.80789L32.9804 8.86535L32.8577 8.98766C31.5075 10.5164 30.2187 11.7394 29.4209 11.7394C28.9913 11.7394 28.8072 11.4336 29.2368 10.761L31.8757 6.11364C32.6736 4.70721 31.9371 3.72882 30.8938 3.72882C30.096 3.72882 29.2368 4.15687 28.3162 5.13525L31.262 0.0598689H29.4209L24.3271 8.80421L24.2044 8.9265C22.8542 10.4552 21.5654 11.6782 20.7676 11.6782C20.338 11.6782 20.1539 11.3725 20.5835 10.6998L24.5112 3.85112H25.9841L26.5365 2.99503H25.0022L26.7206 -0.00128174H24.8794L23.1611 2.99503H21.504L20.9517 3.85112H22.6087L18.9265 10.2106C18.1286 11.5559 18.681 12.8401 20.1539 12.8401C20.8903 12.8401 21.6882 12.4732 22.486 11.8617L21.995 12.6566H23.8361L26.5978 7.82582C29.4209 4.27917 30.6483 4.76836 29.9119 6.11364L27.5184 10.2718C26.7206 11.6171 27.2729 12.9012 28.7458 12.9012C29.8505 12.9012 31.0779 12.0451 32.1826 10.9444C32.244 12.1063 33.2259 12.9012 34.6988 12.9012C36.7854 12.9012 38.872 11.3113 40.3449 9.538C40.4063 9.1711 40.0995 8.92651 39.854 8.80421ZM36.3558 6.23594C37.3991 4.40146 39.3016 4.70721 38.197 6.60284L37.9515 7.03088C37.0923 8.49846 35.8649 8.49846 35.1898 8.25386L36.3558 6.23594Z" fill="#766458"/>
<path d="M106.81 8.80442L106.687 8.92672C106.012 9.72166 105.214 10.3943 104.478 10.9446C105.091 9.17132 104.907 6.5419 106.073 4.15708L104.723 3.42329C103.987 4.46283 102.33 6.84765 100.611 8.80442L100.488 8.92672C99.1383 10.4554 97.8495 11.6784 97.0517 11.6784C96.6221 11.6784 96.4379 11.3727 96.8675 10.7L100.795 3.85134H98.9542L95.7015 9.53821C94.29 10.8223 93.2466 11.495 92.8784 11.3727C92.4488 11.1892 92.8784 10.5166 93.1239 10.0886L96.6834 3.85134H94.8423L91.9579 8.80442L91.8351 8.92672C90.9759 9.84396 89.994 10.272 89.0734 10.272L90.7918 7.27569C91.8965 5.38007 90.8532 3.54559 89.1348 3.54559C87.7233 3.54559 86.6186 4.09593 85.5753 5.93041L84.6547 7.52029L83.9183 8.80442L83.7955 8.92672C82.4453 10.4554 80.7883 11.6784 79.4995 11.6784C78.3949 11.6784 77.7198 10.9446 78.5176 9.47706L78.7017 9.17132C79.8678 9.66051 82.1385 9.41591 83.4887 7.03109L83.7341 6.60305C84.7161 4.89087 83.7955 3.66789 82.2612 3.66789C80.7883 3.66789 79.6223 4.46283 78.8245 5.80811L77.0447 8.86557L76.9219 8.98787C75.3877 10.7612 74.0989 11.8619 72.626 12.4734L76.7378 5.44122H75.6332C75.6332 4.70742 74.8353 3.66789 73.7307 3.66789C72.7487 3.66789 71.3372 4.46283 70.6007 5.80811L68.821 8.86557L68.6982 8.98787C67.3481 10.5166 66.0593 11.7396 65.2615 11.7396C64.8319 11.7396 64.6477 11.4338 65.0773 10.7612L66.9185 7.58144C67.5322 6.48075 67.2253 5.80811 66.673 5.07432L65.6297 3.85134C65.3842 3.54559 65.3842 3.11755 65.7524 2.8118L64.7705 1.77226C63.7272 2.6895 63.6658 3.72904 64.2795 4.58513L64.4636 4.76857C63.6658 5.93041 62.5611 7.45914 61.3337 8.86557L61.211 8.98787C60.3518 9.90511 59.3698 10.3332 58.4493 10.3332L60.1677 7.33684C61.2723 5.44121 60.229 3.60674 58.5106 3.60674C57.0991 3.60674 55.9944 4.15708 54.9511 5.99156L54.0306 7.58144L53.2941 8.86557L53.1714 8.98787C51.6371 10.7612 50.3483 11.8619 48.8754 12.4734L52.9872 5.44122H51.8826C51.8826 4.70742 51.0847 3.66789 49.9801 3.66789C48.9981 3.66789 47.5866 4.46283 46.8501 5.80811L44.2726 10.272C43.4747 11.6173 44.0271 12.9014 45.5 12.9014C45.9909 12.9014 46.6047 12.6568 47.2797 12.2899L46.7888 13.146C44.3339 13.8798 42.7383 14.9193 42.7383 16.2646C42.7383 18.038 45.4386 18.4048 46.7888 16.1423L48.2003 13.7575C49.6732 13.3295 51.0847 12.4122 52.619 11.0058C52.619 13.3295 55.8717 13.8187 57.8356 11.3115H58.2652C59.3698 11.3115 61.0882 10.6389 62.0088 9.53821C62.868 8.49867 63.6044 7.58144 65.0773 5.62466L65.3228 5.93041C65.5683 6.23616 65.6297 6.60305 65.4456 6.96995L63.4817 10.3332C62.6839 11.6784 63.2362 12.9626 64.7091 12.9626C65.6297 12.9626 66.673 12.3511 67.6549 11.495C67.6549 12.3511 68.2073 12.9626 69.2506 12.9626C69.7415 12.9626 70.3553 12.718 71.0303 12.3511L70.6007 13.0849C68.1459 13.8187 66.5502 14.8582 66.5502 16.2035C66.5502 17.9768 69.2506 18.3437 70.6007 16.0812L72.0123 13.6964C73.4852 13.2072 74.9581 12.3511 76.4924 10.8835C76.5537 12.0453 77.4743 12.8403 79.0086 12.8403C80.4815 12.8403 82.0158 11.9842 83.2432 10.8835C83.1818 13.2683 86.4958 13.7575 88.4597 11.2504H88.8893C89.4416 11.2504 90.2395 11.0669 90.9146 10.7C90.4236 11.9842 90.8532 12.8403 91.8965 12.8403C92.8784 12.8403 94.0445 11.923 94.9037 11.0669C94.7196 12.0453 95.3333 12.8403 96.4993 12.8403C98.0336 12.8403 99.752 11.2504 101.286 9.47706C102.33 8.25408 103.25 6.96994 103.925 6.11386C103.189 8.00948 103.618 11.4338 101.839 11.4338C101.225 11.4338 100.979 10.7612 100.979 10.7612L99.8134 11.3727C99.8134 11.3727 100.12 12.8403 101.839 12.8403C102.023 12.8403 102.145 12.8403 102.33 12.7791H102.391C104.293 12.5345 106.135 11.0669 107.485 9.47706C107.423 9.17132 107.117 8.86557 106.81 8.80442ZM80.4815 6.23616C81.5248 4.40168 83.4273 4.70743 82.3226 6.60305L82.0771 7.03109C81.2179 8.49867 79.9905 8.49867 79.3154 8.25408L80.4815 6.23616ZM45.3772 15.7754C45.009 16.4481 44.3953 16.3869 44.3953 15.8366C44.3953 15.3474 44.8249 14.797 46.2364 14.2467L45.3772 15.7754ZM46.2364 11.6784C45.8068 11.6784 45.6227 11.3727 46.0523 10.7L48.6299 6.23616C49.6118 4.52398 51.5757 4.95202 50.6551 6.60305L49.2436 9.04902C48.1389 10.8223 46.9729 11.6784 46.2364 11.6784ZM57.5287 8.92672H57.4673C56.8536 8.92672 56.3627 9.41591 56.3627 10.0274C56.3627 10.272 56.424 10.4555 56.5468 10.6389V10.7C55.6876 12.1676 53.601 11.923 54.6443 9.96626L56.0558 7.58144L56.915 6.11386C58.2038 3.91248 59.9835 4.76857 58.8789 6.6642L57.5287 8.92672ZM69.0665 15.7754C68.6982 16.4481 68.0845 16.3869 68.0845 15.8366C68.0845 15.3474 68.5141 14.797 69.9256 14.2467L69.0665 15.7754ZM69.9256 11.6784C69.4961 11.6784 69.3119 11.3727 69.7415 10.7L72.3191 6.23616C73.3011 4.52398 75.2649 4.95202 74.3444 6.60305L72.9328 9.04902C71.8281 10.8223 70.6621 11.6784 69.9256 11.6784ZM88.0301 8.92672H87.9687C87.355 8.92672 86.8641 9.41591 86.8641 10.0274C86.8641 10.272 86.9254 10.4555 87.0482 10.6389V10.7C86.189 12.1676 84.1024 11.923 85.1457 9.96626L86.5572 7.58144L87.4164 6.11386C88.7052 3.91248 90.485 4.76857 89.3803 6.6642L88.0301 8.92672Z" fill="#766458"/>
</svg>

